<?xml version="1.0" standalone="no"?>
<!DOCTYPE svg PUBLIC "-//W3C//DTD SVG 20010904//EN"
 "http://www.w3.org/TR/2001/REC-SVG-20010904/DTD/svg10.dtd">
<svg version="1.0" xmlns="http://www.w3.org/2000/svg"
 width="700.000000pt" height="700.000000pt" viewBox="0 0 700.000000 700.000000"
 preserveAspectRatio="xMidYMid meet">
<metadata>
Created by potrace 1.14, written by Peter Selinger 2001-2017
</metadata>
<g transform="translate(0.000000,700.000000) scale(0.100000,-0.100000)"
fill="#000000" stroke="none">
<path d="M3280 6335 c-116 -31 -192 -83 -597 -410 -1485 -1196 -1527 -1230
-1566 -1291 -58 -89 -81 -176 -75 -289 4 -81 10 -104 40 -167 20 -40 51 -90
69 -111 19 -20 175 -151 348 -290 173 -138 316 -256 317 -262 2 -5 -126 -113
-283 -240 -340 -273 -381 -310 -423 -375 -114 -178 -87 -426 64 -574 54 -54
186 -161 1811 -1468 61 -48 140 -104 177 -122 196 -100 434 -82 621 46 42 29
260 201 484 382 225 182 639 516 921 744 542 438 566 461 614 581 32 80 32
242 -1 320 -55 134 -64 143 -517 507 l-243 196 162 131 c518 419 525 425 571
516 72 141 73 286 4 426 -16 33 -43 76 -61 96 -18 20 -381 318 -807 661 -426
343 -847 682 -935 753 -275 221 -325 245 -520 251 -85 3 -136 0 -175 -11z
m-126 -1770 c-92 -57 -172 -114 -235 -169 -42 -37 -213 -176 -380 -310 l-304
-244 -40 32 c-457 365 -615 500 -603 512 7 7 364 296 793 642 l780 629 3 -541
c2 -490 1 -542 -14 -551z m1323 469 c428 -345 786 -634 796 -643 17 -16 1 -31
-307 -279 -179 -144 -329 -262 -334 -262 -5 0 -190 145 -410 323 -220 178
-430 340 -466 361 l-66 39 0 543 c0 299 2 544 5 544 2 0 355 -282 782 -626z
m-670 -1186 c186 -150 356 -287 377 -304 l38 -32 -99 -80 c-373 -304 -649
-522 -667 -524 -12 -2 -33 -1 -48 3 -24 6 -749 580 -756 599 -2 6 662 548 728
593 58 40 64 36 427 -255z m-1334 -856 c390 -315 579 -464 639 -501 l58 -36 0
-543 c0 -350 -3 -541 -10 -537 -40 25 -1575 1269 -1575 1277 0 10 634 526 648
527 4 1 112 -84 240 -187z m2492 -77 c178 -143 323 -263 322 -267 -2 -5 -1565
-1270 -1588 -1284 -5 -3 -9 224 -9 539 l0 544 83 56 c45 30 255 195 467 365
212 171 389 310 393 309 5 -2 154 -119 332 -262z"/>
</g>
</svg>
